<svg id="Layer_1" data-name="Layer 1" xmlns="http://www.w3.org/2000/svg" viewBox="0 0 44 46"><defs><style>.cls-1,.cls-2{fill:none;stroke:#3730a3;stroke-miterlimit:10;stroke-width:3px;}.cls-2{stroke-linecap:square;}</style></defs><line class="cls-1" x1="6" y1="11" x2="6" y2="18"/><line class="cls-1" x1="6" y1="28" x2="6" y2="35"/><line class="cls-1" x1="11" y1="23" x2="17" y2="23"/><line class="cls-1" x1="11" y1="6" x2="17" y2="6"/><line class="cls-1" x1="27" y1="6" x2="33" y2="6"/><line class="cls-1" x1="25.43" y1="26.64" x2="34.57" y2="36.36"/><line class="cls-1" x1="33" y1="40" x2="27" y2="40"/><circle class="cls-2" cx="6" cy="6" r="5"/><circle class="cls-2" cx="22" cy="6" r="5"/><circle class="cls-2" cx="38" cy="6" r="5"/><circle class="cls-2" cx="6" cy="23" r="5"/><circle class="cls-2" cx="22" cy="23" r="5"/><circle class="cls-2" cx="6" cy="40" r="5"/><circle class="cls-2" cx="22" cy="40" r="5"/><circle class="cls-2" cx="38" cy="40" r="5"/><line class="cls-1" x1="10" y1="40" x2="17" y2="40"/><line class="cls-1" x1="34.9" y1="9.97" x2="25.43" y2="19.45"/></svg>